<svg width="1200" height="630" viewBox="0 0 1200 630" fill="none" xmlns="http://www.w3.org/2000/svg">
<rect width="1200" height="630" fill="white"/>
<g clip-path="url(#clip0_16_2)">
<path d="M205.027 281.365C211.761 281.365 217.31 283.767 222.118 288.587C226.695 293.391 229.346 298.935 229.346 305.433C229.346 308.806 228.622 311.932 227.42 314.811C226.218 317.937 224.538 320.339 222.365 322.51C220.191 324.682 217.557 326.36 214.412 327.561C211.514 328.762 208.386 329.239 205.027 329.239V361.484C220.685 361.484 233.923 355.956 244.758 345.115C255.839 334.043 261.371 320.816 261.371 305.417C261.371 290.018 255.839 276.775 244.758 265.719C233.923 254.894 220.669 249.35 205.027 249.35H157.113C150.132 249.35 144.583 246.948 139.776 242.127C135.198 237.324 133.041 231.779 133.041 225.051C133.041 221.925 133.519 218.799 134.721 215.904C135.923 213.008 137.619 210.376 139.776 208.204C142.179 205.802 144.583 204.108 147.728 202.907C150.61 201.706 153.754 201.229 157.113 201.229V169C141.455 169 128.217 174.528 117.383 185.6C106.532 196.672 101 209.668 101 225.067C101 240.713 106.532 253.94 117.383 265.012C128.217 275.837 141.471 281.381 157.113 281.381H205.027V281.365ZM410.694 265.242L485.824 169H445.122L390.211 239.265L335.563 169H294.384L370.008 265.242L294.384 361.484H335.563L390.227 291.219V291.466L410.694 265.242ZM390.227 291.236L335.563 361.501L390.227 291.482V291.236ZM636.349 169V284.26L508.233 169V217.598L668.374 361.484V361.237V360.991V169H636.349ZM801.544 169C774.805 169 752.182 178.624 733.625 197.396C714.839 216.167 705.206 238.788 705.206 265.258C705.206 291.976 714.839 314.35 733.625 333.121C752.412 351.893 774.805 361.517 801.544 361.517C828.284 361.517 850.676 351.893 869.463 333.121C888.48 314.597 898.129 291.976 898.129 265.258C898.129 238.788 888.497 216.167 869.463 197.396C850.676 178.624 828.284 169 801.544 169ZM801.544 201.245C819.129 201.245 834.294 207.497 846.824 220.017C859.354 232.536 865.61 247.688 865.61 265.258C865.61 282.829 859.584 297.981 846.824 310.731C834.294 323.25 819.129 329.255 801.544 329.255C783.959 329.255 768.548 323.234 756.034 310.731C743.504 298.211 737.495 282.812 737.495 265.258C737.495 247.688 743.521 232.536 756.034 220.017C768.795 207.266 783.959 201.245 801.544 201.245ZM1041.64 281.365C1048.39 281.365 1053.92 283.767 1058.73 288.587C1063.31 293.391 1065.96 298.935 1065.96 305.433C1065.96 308.806 1065.23 311.932 1064.03 314.811C1062.83 317.937 1061.13 320.339 1058.98 322.51C1056.8 324.682 1054.17 326.36 1051.02 327.561C1048.14 328.762 1045 329.239 1041.64 329.239V361.484C1057.3 361.484 1070.54 355.956 1081.37 345.115C1092.45 334.043 1097.98 320.816 1097.98 305.417C1097.98 290.018 1092.45 276.775 1081.37 265.719C1070.54 254.894 1057.28 249.35 1041.64 249.35H993.709C986.728 249.35 981.179 246.948 976.372 242.127C971.794 237.324 969.637 231.779 969.637 225.051C969.637 221.925 970.115 218.799 971.317 215.904C972.519 213.008 974.198 210.376 976.372 208.204C978.776 205.802 981.179 204.108 984.324 202.907C987.222 201.706 990.351 201.229 993.709 201.229V169C978.051 169 964.813 174.528 953.979 185.6C943.145 196.672 937.596 209.668 937.596 225.067C937.596 240.713 943.128 253.94 953.979 265.012C964.813 275.837 978.068 281.381 993.709 281.381H1041.64V281.365Z" fill="#DAA381"/>
<path d="M154.66 421.138V455.324H150.642V430.104L150.856 426.55L150 430.433L141.438 453.482H137.437L128.892 430.433L128.036 426.55L128.25 430.104V455.324H124.199V421.138H129.485L139.133 448.464L139.446 450.093L139.759 448.464L149.424 421.138H154.66ZM194.045 421.138H214.083V424.79L198.029 424.823V436.405H213.737L213.704 439.975H198.013V451.689L214.066 451.656V455.341H194.045V421.138ZM253.039 421.138H260.844C264.483 421.138 267.479 421.878 269.834 423.326C272.188 424.79 273.934 426.814 275.053 429.38C276.189 431.947 276.749 434.891 276.749 438.215C276.749 441.554 276.189 444.499 275.07 447.082C273.95 449.649 272.205 451.672 269.85 453.136C267.496 454.6 264.499 455.341 260.827 455.341H253.023V421.138H253.039ZM257.057 424.839V451.623H260.531C263.297 451.623 265.553 451.047 267.315 449.895C269.076 448.76 270.377 447.181 271.233 445.157C272.073 443.15 272.518 440.847 272.534 438.264C272.551 435.665 272.139 433.345 271.299 431.338C270.459 429.331 269.142 427.751 267.364 426.583C265.586 425.432 263.297 424.839 260.514 424.839H257.057ZM314.899 421.138H318.949V455.324H314.932L314.899 421.138ZM374.766 451.985C376.956 451.985 378.85 451.689 380.447 451.08C382.044 450.471 383.164 449.895 383.839 449.319L385.601 452.791C384.843 453.482 383.493 454.173 381.583 454.897C379.657 455.604 377.335 455.966 374.635 455.966C372.116 455.966 369.777 455.505 367.621 454.6C365.464 453.696 363.57 452.445 361.973 450.833C360.359 449.221 359.092 447.362 358.202 445.223C357.297 443.101 356.852 440.781 356.852 438.297C356.852 435.813 357.297 433.493 358.202 431.338C359.092 429.199 360.359 427.307 361.957 425.695C363.57 424.083 365.447 422.816 367.604 421.911C369.761 421.006 372.099 420.546 374.635 420.546C377.335 420.546 379.657 420.891 381.583 421.615C383.493 422.322 384.843 423.03 385.601 423.721L383.839 427.192C383.164 426.6 382.028 426.024 380.447 425.415C378.85 424.823 376.956 424.527 374.766 424.527C372.807 424.527 371.012 424.872 369.382 425.547C367.736 426.238 366.303 427.192 365.085 428.409C363.85 429.643 362.911 431.091 362.236 432.769C361.561 434.447 361.232 436.273 361.232 438.264C361.232 440.271 361.561 442.114 362.236 443.792C362.911 445.47 363.866 446.934 365.085 448.168C366.32 449.385 367.752 450.339 369.382 451.03C371.029 451.656 372.824 451.985 374.766 451.985ZM433.267 421.138H437.499L450.045 455.324H445.748L442.735 446.934H428.031L425.002 455.324H420.671L433.267 421.138ZM429.332 443.265H441.483L435.424 426.123H435.342L429.332 443.265ZM485.808 421.138H489.825V451.672L503.409 451.639V455.324H485.775L485.808 421.138ZM566.273 421.138H586.311V424.79L570.274 424.823V436.405H585.982L585.949 439.975H570.274V451.689L586.311 451.656V455.341H566.273V421.138ZM650.13 457.167C651.135 457.167 651.991 457.052 652.748 456.821C653.473 456.591 654.049 456.344 654.477 456.098C654.889 455.851 655.136 455.703 655.185 455.637L656.93 458.565C656.519 459.042 655.745 459.569 654.625 460.145C653.506 460.72 651.991 461 650.097 461C648.895 461 647.891 460.869 647.035 460.605C646.179 460.342 645.372 460.046 644.631 459.7C643.89 459.355 643.116 459.042 642.326 458.779C641.535 458.516 640.597 458.368 639.494 458.368C638.44 458.368 637.485 458.565 636.662 458.944C635.822 459.322 635.147 459.7 634.653 460.095C634.159 460.49 633.879 460.704 633.83 460.77L631.788 458.417C632.908 457.414 634.142 456.608 635.493 455.982C636.826 455.357 638.391 455.045 640.202 455.045C641.552 455.045 642.754 455.209 643.791 455.555C644.828 455.9 645.866 456.246 646.87 456.608C647.842 456.986 648.928 457.167 650.13 457.167ZM627.803 438.198C627.803 440.814 628.363 443.15 629.45 445.256C630.537 447.362 632.051 449.023 633.961 450.241C635.888 451.475 638.078 452.083 640.564 452.083C643.05 452.083 645.256 451.475 647.183 450.241C649.093 449.007 650.591 447.362 651.678 445.256C652.748 443.15 653.291 440.814 653.291 438.198C653.291 435.599 652.748 433.246 651.678 431.157C650.591 429.068 649.093 427.422 647.183 426.189C645.256 424.971 643.067 424.362 640.564 424.362C638.078 424.362 635.871 424.971 633.961 426.189C632.035 427.406 630.537 429.068 629.45 431.157C628.363 433.246 627.803 435.599 627.803 438.198ZM623.638 438.198C623.638 435.714 624.066 433.394 624.922 431.239C625.762 429.1 626.964 427.208 628.495 425.613C630.01 424 631.821 422.75 633.879 421.862C635.937 420.957 638.176 420.513 640.58 420.513C643.017 420.513 645.256 420.957 647.315 421.862C649.356 422.767 651.135 424.017 652.682 425.613C654.197 427.225 655.383 429.1 656.239 431.239C657.062 433.394 657.49 435.714 657.49 438.198C657.49 440.699 657.079 443.035 656.239 445.174C655.416 447.329 654.23 449.221 652.699 450.817C651.168 452.429 649.373 453.696 647.331 454.584C645.289 455.489 643.034 455.933 640.58 455.933C638.127 455.933 635.855 455.489 633.797 454.584C631.722 453.679 629.927 452.429 628.429 450.817C626.914 449.204 625.729 447.329 624.906 445.174C624.049 443.035 623.638 440.715 623.638 438.198ZM715.546 421.138H719.597V442.41C719.597 445.223 719.021 447.641 717.901 449.665C716.765 451.689 715.234 453.251 713.291 454.321C711.348 455.407 709.125 455.949 706.639 455.949C704.152 455.949 701.93 455.407 699.954 454.321C697.978 453.251 696.43 451.689 695.311 449.665C694.191 447.641 693.631 445.223 693.631 442.41V421.138H697.649V442.196C697.649 444.236 698.044 445.996 698.834 447.493C699.608 448.99 700.695 450.142 702.061 450.948C703.428 451.754 704.959 452.166 706.655 452.166C708.351 452.166 709.866 451.754 711.216 450.948C712.55 450.142 713.62 448.974 714.41 447.493C715.201 445.996 715.579 444.236 715.579 442.196V421.138H715.546ZM758.488 421.138H762.538V455.324H758.521L758.488 421.138ZM802.236 421.138H811.571C813.695 421.138 815.622 421.483 817.351 422.174C819.079 422.865 820.43 423.951 821.45 425.415C822.471 426.896 822.982 428.821 822.982 431.19C822.982 433.575 822.471 435.533 821.45 437.079C820.43 438.626 819.063 439.778 817.351 440.534C815.622 441.291 813.712 441.669 811.571 441.669H806.253V455.324H802.236V421.138ZM806.253 438.264H810.485C811.999 438.264 813.383 438.05 814.634 437.606C815.885 437.162 816.873 436.438 817.614 435.401C818.355 434.381 818.734 432.999 818.75 431.272C818.734 429.545 818.355 428.196 817.614 427.208C816.873 426.238 815.885 425.547 814.634 425.152C813.383 424.757 812.016 424.56 810.485 424.56L806.253 424.527V438.264ZM890.868 421.138V455.324H886.85V430.104L887.064 426.55L886.208 430.433L877.646 453.482H873.662L865.1 430.433L864.243 426.55L864.458 430.104V455.324H860.407V421.138H865.692L875.341 448.464L875.654 450.093L875.967 448.464L885.632 421.138H890.868ZM930.269 421.138H950.307V424.79L934.253 424.823V436.405H949.961L949.928 439.975H934.237V451.689L950.291 451.656V455.341H930.252V421.138H930.269ZM993.182 424.971L993.446 425.02V455.324H989.412V421.138H995.158L1013.35 451.409L1013.12 451.458V421.121H1017.14V455.308H1011.36L993.182 424.971ZM1063.41 424.79L1054.02 424.823L1054.05 421.138H1076.81V424.79L1067.46 424.823L1067.42 455.341H1063.41V424.79Z" fill="#DAA381"/>
</g>
<defs>
<clipPath id="clip0_16_2">
<rect width="997" height="292" fill="white" transform="translate(101 169)"/>
</clipPath>
</defs>
</svg>
