<svg width="1200" height="630" viewBox="0 0 1200 630" fill="none" xmlns="http://www.w3.org/2000/svg">
<rect width="1200" height="630" fill="white"/>
<g clip-path="url(#clip0_16_9)">
<path d="M205.027 281.365C211.761 281.365 217.31 283.767 222.118 288.587C226.695 293.391 229.346 298.935 229.346 305.433C229.346 308.806 228.622 311.932 227.42 314.811C226.218 317.937 224.538 320.339 222.365 322.51C220.191 324.682 217.557 326.36 214.412 327.561C211.514 328.762 208.386 329.239 205.027 329.239V361.484C220.685 361.484 233.923 355.956 244.758 345.115C255.839 334.043 261.371 320.816 261.371 305.417C261.371 290.018 255.839 276.775 244.758 265.719C233.923 254.894 220.669 249.35 205.027 249.35H157.113C150.132 249.35 144.583 246.948 139.776 242.127C135.198 237.324 133.041 231.779 133.041 225.051C133.041 221.925 133.519 218.799 134.721 215.904C135.923 213.008 137.619 210.376 139.776 208.204C142.179 205.802 144.583 204.108 147.728 202.907C150.61 201.706 153.754 201.229 157.113 201.229V169C141.455 169 128.217 174.528 117.383 185.6C106.532 196.672 101 209.668 101 225.067C101 240.713 106.532 253.94 117.383 265.012C128.217 275.837 141.471 281.381 157.113 281.381H205.027V281.365ZM410.694 265.242L485.824 169H445.122L390.211 239.265L335.563 169H294.384L370.008 265.242L294.384 361.484H335.563L390.227 291.219V291.466L410.694 265.242ZM390.227 291.236L335.563 361.501L390.227 291.482V291.236ZM636.349 169V284.26L508.233 169V217.598L668.374 361.484V361.237V360.991V169H636.349ZM801.544 169C774.805 169 752.182 178.624 733.625 197.396C714.839 216.167 705.206 238.788 705.206 265.258C705.206 291.976 714.839 314.35 733.625 333.121C752.412 351.893 774.805 361.517 801.544 361.517C828.284 361.517 850.676 351.893 869.463 333.121C888.48 314.597 898.129 291.976 898.129 265.258C898.129 238.788 888.497 216.167 869.463 197.396C850.676 178.624 828.284 169 801.544 169ZM801.544 201.245C819.129 201.245 834.294 207.497 846.824 220.017C859.354 232.536 865.61 247.688 865.61 265.258C865.61 282.829 859.584 297.981 846.824 310.731C834.294 323.25 819.129 329.255 801.544 329.255C783.959 329.255 768.548 323.234 756.034 310.731C743.504 298.211 737.495 282.812 737.495 265.258C737.495 247.688 743.521 232.536 756.034 220.017C768.795 207.266 783.959 201.245 801.544 201.245ZM1041.64 281.365C1048.39 281.365 1053.92 283.767 1058.73 288.587C1063.31 293.391 1065.96 298.935 1065.96 305.433C1065.96 308.806 1065.23 311.932 1064.03 314.811C1062.83 317.937 1061.13 320.339 1058.98 322.51C1056.8 324.682 1054.17 326.36 1051.02 327.561C1048.14 328.762 1045 329.239 1041.64 329.239V361.484C1057.3 361.484 1070.54 355.956 1081.37 345.115C1092.45 334.043 1097.98 320.816 1097.98 305.417C1097.98 290.018 1092.45 276.775 1081.37 265.719C1070.54 254.894 1057.28 249.35 1041.64 249.35H993.709C986.728 249.35 981.179 246.948 976.372 242.127C971.794 237.324 969.637 231.779 969.637 225.051C969.637 221.925 970.115 218.799 971.317 215.904C972.519 213.008 974.198 210.376 976.372 208.204C978.776 205.802 981.179 204.108 984.324 202.907C987.222 201.706 990.351 201.229 993.709 201.229V169C978.051 169 964.813 174.528 953.979 185.6C943.145 196.672 937.596 209.668 937.596 225.067C937.596 240.713 943.128 253.94 953.979 265.012C964.813 275.837 978.068 281.381 993.709 281.381H1041.64V281.365Z" fill="url(#paint0_radial_16_9)"/>
<path d="M159.682 421.138V455.324H155.664V430.104L155.878 426.55L155.022 430.433L146.46 453.482H142.459L133.914 430.433L133.058 426.55L133.272 430.104V455.324H129.221V421.138H134.507L144.155 448.464L144.468 450.093L144.781 448.464L154.446 421.138H159.682ZM199.083 421.138H219.121V424.79L203.068 424.823V436.405H218.775L218.742 439.975H203.051V451.689L219.105 451.656V455.341H199.083V421.138ZM258.061 421.138H265.866C269.505 421.138 272.501 421.878 274.856 423.326C277.21 424.79 278.956 426.814 280.075 429.38C281.211 431.947 281.771 434.891 281.771 438.215C281.771 441.554 281.211 444.499 280.092 447.082C278.972 449.649 277.227 451.672 274.872 453.136C272.518 454.6 269.521 455.341 265.849 455.341H258.045V421.138H258.061ZM262.079 424.839V451.623H265.553C268.319 451.623 270.575 451.047 272.337 449.895C274.098 448.76 275.399 447.181 276.255 445.157C277.095 443.15 277.54 440.847 277.556 438.264C277.573 435.665 277.161 433.345 276.321 431.338C275.481 429.331 274.164 427.751 272.386 426.583C270.608 425.432 268.319 424.839 265.536 424.839H262.079ZM319.921 421.138H323.971V455.324H319.954L319.921 421.138ZM379.805 451.985C381.995 451.985 383.888 451.689 385.485 451.08C387.082 450.471 388.202 449.895 388.877 449.319L390.639 452.791C389.882 453.482 388.531 454.173 386.621 454.897C384.695 455.604 382.373 455.966 379.673 455.966C377.154 455.966 374.816 455.505 372.659 454.6C370.502 453.696 368.609 452.445 367.011 450.833C365.398 449.221 364.13 447.362 363.241 445.223C362.335 443.101 361.891 440.781 361.891 438.297C361.891 435.813 362.335 433.493 363.241 431.338C364.13 429.199 365.398 427.307 366.995 425.695C368.609 424.083 370.486 422.816 372.642 421.911C374.799 421.006 377.137 420.546 379.673 420.546C382.373 420.546 384.695 420.891 386.621 421.615C388.531 422.322 389.882 423.03 390.639 423.721L388.877 427.192C388.202 426.6 387.066 426.024 385.485 425.415C383.888 424.823 381.995 424.527 379.805 424.527C377.846 424.527 376.051 424.872 374.421 425.547C372.774 426.238 371.342 427.192 370.123 428.409C368.888 429.643 367.95 431.091 367.275 432.769C366.6 434.447 366.27 436.273 366.27 438.264C366.27 440.271 366.6 442.114 367.275 443.792C367.95 445.47 368.905 446.934 370.123 448.168C371.358 449.385 372.791 450.339 374.421 451.03C376.051 451.656 377.846 451.985 379.805 451.985ZM438.289 421.138H442.521L455.067 455.324H450.77L447.757 446.934H433.053L430.024 455.324H425.693L438.289 421.138ZM434.354 443.265H446.505L440.446 426.123H440.364L434.354 443.265ZM490.83 421.138H494.847V451.672L508.431 451.639V455.324H490.797L490.83 421.138ZM571.311 421.138H591.35V424.79L575.312 424.823V436.405H591.02L590.987 439.975H575.312V451.689L591.35 451.656V455.341H571.311V421.138ZM655.152 457.167C656.157 457.167 657.013 457.052 657.77 456.821C658.495 456.591 659.071 456.344 659.499 456.098C659.911 455.851 660.158 455.703 660.207 455.637L661.952 458.565C661.541 459.042 660.767 459.569 659.647 460.145C658.528 460.72 657.013 461 655.119 461C653.917 461 652.913 460.869 652.057 460.605C651.2 460.342 650.394 460.046 649.653 459.7C648.912 459.355 648.138 459.042 647.348 458.779C646.557 458.516 645.619 458.368 644.516 458.368C643.462 458.368 642.507 458.565 641.684 458.944C640.844 459.322 640.169 459.7 639.675 460.095C639.181 460.49 638.901 460.704 638.852 460.77L636.81 458.417C637.93 457.414 639.165 456.608 640.515 455.982C641.848 455.357 643.413 455.045 645.224 455.045C646.574 455.045 647.776 455.209 648.813 455.555C649.85 455.9 650.888 456.246 651.892 456.608C652.864 456.986 653.95 457.167 655.152 457.167ZM632.825 438.198C632.825 440.814 633.385 443.15 634.472 445.256C635.559 447.362 637.073 449.023 638.983 450.241C640.91 451.475 643.1 452.083 645.586 452.083C648.072 452.083 650.278 451.475 652.205 450.241C654.115 449.007 655.613 447.362 656.7 445.256C657.77 443.15 658.314 440.814 658.314 438.198C658.314 435.599 657.77 433.246 656.7 431.157C655.613 429.068 654.115 427.422 652.205 426.189C650.278 424.971 648.089 424.362 645.586 424.362C643.1 424.362 640.893 424.971 638.983 426.189C637.057 427.406 635.559 429.068 634.472 431.157C633.385 433.246 632.825 435.599 632.825 438.198ZM628.66 438.198C628.66 435.714 629.088 433.394 629.944 431.239C630.784 429.1 631.986 427.208 633.517 425.613C635.032 424 636.843 422.75 638.901 421.862C640.959 420.957 643.198 420.513 645.602 420.513C648.039 420.513 650.278 420.957 652.337 421.862C654.378 422.767 656.156 424.017 657.704 425.613C659.219 427.225 660.405 429.1 661.261 431.239C662.084 433.394 662.512 435.714 662.512 438.198C662.512 440.699 662.1 443.035 661.261 445.174C660.437 447.329 659.252 449.221 657.721 450.817C656.189 452.429 654.395 453.696 652.353 454.584C650.311 455.489 648.056 455.933 645.602 455.933C643.149 455.933 640.877 455.489 638.819 454.584C636.744 453.679 634.949 452.429 633.451 450.817C631.936 449.204 630.751 447.329 629.927 445.174C629.088 443.035 628.66 440.715 628.66 438.198ZM720.568 421.138H724.619V442.41C724.619 445.223 724.043 447.641 722.923 449.665C721.787 451.689 720.256 453.251 718.313 454.321C716.37 455.407 714.147 455.949 711.661 455.949C709.174 455.949 706.952 455.407 704.976 454.321C703 453.251 701.452 451.689 700.333 449.665C699.213 447.641 698.653 445.223 698.653 442.41V421.138H702.671V442.196C702.671 444.236 703.066 445.996 703.856 447.493C704.63 448.99 705.717 450.142 707.083 450.948C708.45 451.754 709.981 452.166 711.677 452.166C713.373 452.166 714.888 451.754 716.238 450.948C717.572 450.142 718.642 448.974 719.432 447.493C720.223 445.996 720.601 444.236 720.601 442.196V421.138H720.568ZM763.51 421.138H767.56V455.324H763.542L763.51 421.138ZM807.258 421.138H816.593C818.717 421.138 820.644 421.483 822.373 422.174C824.101 422.865 825.452 423.951 826.472 425.415C827.493 426.896 828.004 428.821 828.004 431.19C828.004 433.575 827.493 435.533 826.472 437.079C825.452 438.626 824.085 439.778 822.373 440.534C820.644 441.291 818.734 441.669 816.593 441.669H811.275V455.324H807.258V421.138ZM811.275 438.264H815.507C817.021 438.264 818.405 438.05 819.656 437.606C820.907 437.162 821.895 436.438 822.636 435.401C823.377 434.381 823.756 432.999 823.772 431.272C823.756 429.545 823.377 428.196 822.636 427.208C821.895 426.238 820.907 425.547 819.656 425.152C818.405 424.757 817.038 424.56 815.507 424.56L811.275 424.527V438.264ZM895.89 421.138V455.324H891.872V430.104L892.086 426.55L891.23 430.433L882.668 453.482H878.684L870.122 430.433L869.265 426.55L869.48 430.104V455.324H865.429V421.138H870.714L880.363 448.464L880.676 450.093L880.989 448.464L890.654 421.138H895.89ZM935.291 421.138H955.329V424.79L939.275 424.823V436.405H954.983L954.95 439.975H939.259V451.689L955.312 451.656V455.341H935.291V421.138ZM998.221 424.971L998.484 425.02V455.324H994.45V421.138H1000.2L1018.39 451.409L1018.16 451.458V421.121H1022.18V455.308H1016.4L998.221 424.971ZM1068.43 424.79L1059.04 424.823L1059.08 421.138H1081.83V424.79L1072.48 424.823L1072.45 455.324H1068.43V424.79Z" fill="#DBA481"/>
</g>
<defs>
<radialGradient id="paint0_radial_16_9" cx="0" cy="0" r="1" gradientUnits="userSpaceOnUse" gradientTransform="translate(599.499 265.249) scale(359.013 358.717)">
<stop offset="0.00269779" stop-color="white"/>
<stop offset="0.0318" stop-color="#FDFAF9"/>
<stop offset="0.2457" stop-color="#F1DCCE"/>
<stop offset="0.4534" stop-color="#E7C3AC"/>
<stop offset="0.6505" stop-color="#E1B294"/>
<stop offset="0.8329" stop-color="#DCA886"/>
<stop offset="0.9861" stop-color="#DBA481"/>
</radialGradient>
<clipPath id="clip0_16_9">
<rect width="997" height="292" fill="white" transform="translate(101 169)"/>
</clipPath>
</defs>
</svg>
